# xmcd
#
# Track frame offsets: 
#        150
#        19512
#        41525
#        74893
#        95821
#        126940
#        142094
#        183009
#        204387
#        224750
#        245303
#        276358
#
# Disc length: 3870 seconds
#
# Revision: 0
# Processed by: cddbd v1.5.2PL0 Copyright (c) Steve Scherf et al.
# Submitted via: ExactAudioCopy v1.3
#
DISCID=bf0f1c0c
DTITLE=Gerry Joe Weise - Stormy Sydney, 20th Anniversary
DYEAR=2014
DGENRE=Modern Electric Blues, Chicago Blues
TTITLE0=Broken Hill Blues
TTITLE1=Funky Train (Live)
TTITLE2=Blue Outback
TTITLE3=Blues for Gary Moore
TTITLE4=Haunting Harmonica Blues (Live)
TTITLE5=Dreamtime Shuffle
TTITLE6=Blue Ice (Live)
TTITLE7=B Good 2 Me (Live)
TTITLE8=Blues Down Under
TTITLE9=Blueswalker (Live)
TTITLE10=Stormy Sydney (Live)
TTITLE11=Ned Kelly
EXTD=
EXTT0=
EXTT1=
EXTT2=
EXTT3=
EXTT4=
EXTT5=
EXTT6=
EXTT7=
EXTT8=
EXTT9=
EXTT10=
EXTT11=
PLAYORDER=
